<svg width="248" height="248" viewBox="0 0 248 248" fill="none" xmlns="http://www.w3.org/2000/svg">
<path d="M202.928 51.0881C190.588 22.9501 160.967 12.3555 137.595 31.2481C128.469 38.6187 122.775 50.3491 111.6 55.0561C101.115 59.4705 87.8317 58.171 76.4931 60.5617C52.3478 65.6209 19.84 84.8161 22.32 114.393C23.4062 127.348 32.1458 141.737 36.4659 153.859C41.4259 167.807 44.4019 185.256 57.531 193.594C80.0395 207.908 107.191 196.208 127.467 184.666C138.379 178.461 144.386 174.647 156.136 176.775C167.013 178.759 176.809 185.703 187.438 177.464C195.419 171.279 196.079 158.745 202.78 151.384C210.329 143.091 217.982 142.491 221.905 130.027C226.662 114.903 219.654 105.455 214.917 91.9436C210.18 78.4326 208.742 64.3264 202.928 51.0881Z" fill="white"/>
<g opacity="0.7">
<path opacity="0.7" d="M202.928 51.0881C190.588 22.9501 160.967 12.3555 137.595 31.2481C128.469 38.6187 122.775 50.3491 111.6 55.0561C101.115 59.4705 87.8317 58.171 76.4931 60.5617C52.3478 65.6209 19.84 84.8161 22.32 114.393C23.4062 127.348 32.1458 141.737 36.4659 153.859C41.4259 167.807 44.4019 185.256 57.531 193.594C80.0395 207.908 107.191 196.208 127.467 184.666C138.379 178.461 144.386 174.647 156.136 176.775C167.013 178.759 176.809 185.703 187.438 177.464C195.419 171.279 196.079 158.745 202.78 151.384C210.329 143.091 217.982 142.491 221.905 130.027C226.662 114.903 219.654 105.455 214.917 91.9436C210.18 78.4326 208.742 64.3264 202.928 51.0881Z" fill="white"/>
</g>
<path d="M109.026 217.089C151.37 217.089 185.697 214.951 185.697 212.313C185.697 209.675 151.37 207.536 109.026 207.536C66.6812 207.536 32.3541 209.675 32.3541 212.313C32.3541 214.951 66.6812 217.089 109.026 217.089Z" fill="white"/>
<path opacity="0.8" d="M109.026 217.089C151.37 217.089 185.697 214.951 185.697 212.313C185.697 209.675 151.37 207.536 109.026 207.536C66.6812 207.536 32.3541 209.675 32.3541 212.313C32.3541 214.951 66.6812 217.089 109.026 217.089Z" fill="white"/>
<path d="M166.641 30.6826H89.5479C84.2253 30.6826 79.9106 34.9974 79.9106 40.3199V203.077C79.9106 208.4 84.2253 212.715 89.5479 212.715H166.641C171.964 212.715 176.278 208.4 176.278 203.077V40.3199C176.278 34.9974 171.964 30.6826 166.641 30.6826Z" fill="#263238"/>
<path d="M171.993 50.6714H84.191V192.726H171.993V50.6714Z" fill="white" stroke="#263238" stroke-width="1.33739" stroke-miterlimit="10"/>
<path d="M141.552 108.193C148.984 100.761 148.984 88.7108 141.552 81.2785C134.119 73.8463 122.069 73.8463 114.637 81.2785C107.205 88.7108 107.205 100.761 114.637 108.193C122.069 115.625 134.119 115.625 141.552 108.193Z" fill="white"/>
<path d="M153.08 183.793H103.113C103.001 183.793 102.89 183.772 102.785 183.729C102.681 183.687 102.587 183.624 102.507 183.545C102.427 183.465 102.364 183.371 102.321 183.267C102.278 183.163 102.255 183.052 102.255 182.94C102.255 182.827 102.276 182.715 102.319 182.61C102.362 182.506 102.425 182.411 102.505 182.331C102.585 182.252 102.68 182.188 102.784 182.146C102.889 182.103 103.001 182.081 103.113 182.082H153.08C153.193 182.082 153.304 182.104 153.408 182.147C153.512 182.19 153.606 182.253 153.685 182.333C153.765 182.413 153.828 182.508 153.87 182.612C153.913 182.716 153.934 182.827 153.934 182.94C153.934 183.166 153.844 183.383 153.684 183.543C153.524 183.703 153.307 183.793 153.08 183.793Z" fill="white"/>
<path d="M154.707 124.466H101.482C100.383 124.466 99.4927 125.357 99.4927 126.455V132.73C99.4927 133.828 100.383 134.719 101.482 134.719H154.707C155.806 134.719 156.696 133.828 156.696 132.73V126.455C156.696 125.357 155.806 124.466 154.707 124.466Z" fill="white"/>
<path d="M154.707 143.642H101.482C100.383 143.642 99.4927 144.532 99.4927 145.631V151.905C99.4927 153.003 100.383 153.894 101.482 153.894H154.707C155.806 153.894 156.696 153.003 156.696 151.905V145.631C156.696 144.532 155.806 143.642 154.707 143.642Z" fill="white"/>
<path d="M137.571 104.229L131.971 101.005V98.3418C132.782 97.3608 133.369 96.2149 133.692 94.9839C133.885 95.0523 134.087 95.0876 134.292 95.088C134.986 95.088 135.428 92.9354 135.502 91.3978C136.311 89.6866 135.21 88.6847 135.21 88.6847C135.21 88.6847 135.666 88.2284 135.968 86.3981C136.271 84.5679 134.902 85.3317 133.836 83.6552C132.769 81.9788 132.005 80.1535 128.504 80.1535C127.539 80.1217 126.587 80.381 125.771 80.8976C124.956 81.4142 124.314 82.1642 123.931 83.0501C123.059 83.0533 122.19 83.1548 121.341 83.3527C120.27 83.6552 119.968 87.162 120.88 88.5359C121.289 89.2867 121.507 90.1264 121.515 90.9812C121.272 90.6836 121.019 90.6042 120.88 91.2788C120.578 92.8015 121.798 94.9343 121.798 94.9343L122.428 94.7557C122.745 96.0713 123.357 97.2976 124.218 98.3418V101.005L118.618 104.229C117.964 104.607 117.421 105.15 117.043 105.804C116.666 106.457 116.466 107.199 116.466 107.954V109.799C119.796 112.372 123.886 113.768 128.094 113.768C132.303 113.768 136.393 112.372 139.723 109.799V107.954C139.724 107.199 139.525 106.457 139.147 105.803C138.769 105.149 138.225 104.606 137.571 104.229V104.229Z" fill="#263238"/>
<path d="M106.739 151.345C106.611 151.343 106.488 151.291 106.397 151.201C106.348 151.157 106.309 151.104 106.283 151.044C106.256 150.984 106.243 150.919 106.243 150.854C106.245 150.764 106.27 150.677 106.318 150.601L107.21 149.172L105.469 149.227C105.404 149.231 105.338 149.221 105.277 149.198C105.215 149.175 105.159 149.139 105.112 149.093C105.031 149.002 104.987 148.885 104.987 148.763C104.987 148.641 105.031 148.524 105.112 148.433C105.158 148.385 105.214 148.348 105.275 148.324C105.337 148.3 105.403 148.29 105.469 148.294L107.186 148.359L106.303 146.935C106.255 146.858 106.229 146.768 106.228 146.677C106.228 146.612 106.241 146.547 106.268 146.487C106.294 146.427 106.333 146.374 106.382 146.33C106.473 146.24 106.596 146.188 106.724 146.186C106.809 146.187 106.891 146.211 106.963 146.257C107.034 146.303 107.09 146.368 107.126 146.444L107.974 147.977L108.812 146.454C108.852 146.373 108.913 146.304 108.99 146.255C109.066 146.206 109.154 146.179 109.244 146.176C109.307 146.177 109.369 146.19 109.426 146.216C109.483 146.241 109.534 146.279 109.576 146.325C109.667 146.419 109.717 146.546 109.715 146.677C109.715 146.762 109.693 146.846 109.651 146.92L108.753 148.359L110.494 148.294C110.56 148.29 110.626 148.3 110.688 148.324C110.75 148.348 110.805 148.385 110.851 148.433C110.936 148.521 110.982 148.639 110.98 148.76C110.98 148.883 110.934 149.002 110.851 149.093C110.804 149.139 110.748 149.175 110.687 149.198C110.625 149.221 110.56 149.231 110.494 149.227L108.743 149.172L109.616 150.586C109.665 150.665 109.691 150.756 109.69 150.849C109.69 150.98 109.638 151.106 109.545 151.199C109.452 151.292 109.326 151.345 109.194 151.345C109.109 151.343 109.027 151.318 108.956 151.27C108.886 151.222 108.83 151.155 108.798 151.077L107.969 149.589L107.146 151.077C107.109 151.155 107.052 151.221 106.98 151.268C106.909 151.315 106.825 151.342 106.739 151.345V151.345Z" fill="#263238"/>
<path d="M114.784 151.345C114.656 151.343 114.533 151.291 114.442 151.201C114.393 151.157 114.354 151.104 114.328 151.044C114.301 150.984 114.288 150.919 114.288 150.854C114.29 150.764 114.316 150.677 114.363 150.601L115.256 149.172L113.52 149.227C113.453 149.23 113.387 149.219 113.325 149.196C113.263 149.173 113.206 149.138 113.157 149.093C113.092 149.025 113.048 148.939 113.032 148.845C113.015 148.752 113.028 148.656 113.067 148.57C113.106 148.484 113.17 148.412 113.251 148.362C113.331 148.313 113.425 148.289 113.52 148.294L115.231 148.359L114.348 146.935C114.3 146.858 114.274 146.768 114.273 146.677C114.273 146.612 114.286 146.547 114.313 146.487C114.339 146.427 114.378 146.374 114.427 146.33C114.518 146.24 114.641 146.188 114.769 146.186C114.854 146.187 114.937 146.211 115.008 146.257C115.079 146.303 115.136 146.368 115.171 146.444L116.019 147.977L116.858 146.454C116.897 146.373 116.959 146.304 117.035 146.255C117.111 146.206 117.199 146.179 117.289 146.176C117.352 146.176 117.414 146.189 117.471 146.215C117.529 146.24 117.58 146.278 117.621 146.325C117.667 146.371 117.704 146.426 117.728 146.487C117.753 146.547 117.766 146.612 117.765 146.677C117.764 146.763 117.74 146.847 117.696 146.92L116.798 148.359L118.544 148.304C118.609 148.3 118.675 148.31 118.736 148.334C118.797 148.358 118.851 148.395 118.896 148.443C118.981 148.531 119.027 148.648 119.025 148.77C119.025 148.893 118.979 149.012 118.896 149.103C118.85 149.149 118.795 149.185 118.735 149.208C118.674 149.231 118.609 149.241 118.544 149.237L116.788 149.182L117.661 150.596C117.71 150.675 117.736 150.766 117.736 150.859C117.736 150.99 117.683 151.116 117.59 151.209C117.497 151.302 117.371 151.355 117.24 151.355C117.155 151.353 117.072 151.327 117.001 151.28C116.931 151.232 116.876 151.165 116.843 151.087L116.014 149.599L115.191 151.087C115.153 151.163 115.095 151.227 115.024 151.272C114.952 151.318 114.869 151.343 114.784 151.345V151.345Z" fill="#263238"/>
<path d="M122.834 151.345C122.704 151.344 122.58 151.292 122.487 151.201C122.438 151.157 122.399 151.104 122.373 151.044C122.346 150.984 122.333 150.919 122.333 150.854C122.335 150.764 122.361 150.677 122.408 150.601L123.301 149.172L121.565 149.227C121.471 149.23 121.379 149.206 121.299 149.157C121.219 149.108 121.156 149.037 121.117 148.951C121.078 148.866 121.066 148.772 121.081 148.679C121.096 148.587 121.138 148.501 121.203 148.433C121.249 148.385 121.306 148.348 121.368 148.324C121.431 148.3 121.498 148.29 121.565 148.294L123.276 148.359L122.393 146.935C122.345 146.858 122.319 146.768 122.319 146.677C122.32 146.612 122.335 146.548 122.361 146.488C122.387 146.429 122.425 146.375 122.472 146.33C122.565 146.238 122.689 146.187 122.82 146.186C122.903 146.188 122.985 146.213 123.055 146.258C123.125 146.304 123.181 146.368 123.216 146.444L124.064 147.977L124.903 146.454C124.942 146.373 125.004 146.304 125.08 146.255C125.156 146.206 125.244 146.179 125.334 146.176C125.397 146.176 125.459 146.189 125.516 146.215C125.574 146.24 125.625 146.278 125.667 146.325C125.713 146.371 125.749 146.426 125.774 146.487C125.798 146.547 125.811 146.612 125.81 146.677C125.809 146.763 125.785 146.847 125.741 146.92L124.843 148.359L126.589 148.294C126.653 148.288 126.718 148.295 126.779 148.316C126.84 148.337 126.896 148.37 126.943 148.414C126.99 148.459 127.027 148.512 127.052 148.572C127.076 148.632 127.088 148.696 127.085 148.76C127.086 148.883 127.042 149.001 126.961 149.093C126.914 149.139 126.858 149.175 126.797 149.198C126.735 149.221 126.67 149.231 126.604 149.227L124.853 149.172L125.721 150.586C125.77 150.665 125.796 150.756 125.796 150.849C125.794 150.914 125.78 150.978 125.753 151.038C125.727 151.097 125.689 151.151 125.642 151.196C125.599 151.242 125.546 151.279 125.488 151.305C125.43 151.331 125.368 151.344 125.304 151.345C125.22 151.343 125.138 151.317 125.068 151.269C124.999 151.222 124.945 151.155 124.913 151.077L124.079 149.589L123.256 151.077C123.219 151.157 123.159 151.225 123.085 151.273C123.01 151.32 122.923 151.345 122.834 151.345V151.345Z" fill="#263238"/>
<path d="M130.88 151.345C130.749 151.344 130.625 151.292 130.532 151.201C130.439 151.109 130.385 150.984 130.384 150.854C130.382 150.764 130.406 150.677 130.453 150.601L131.346 149.172L129.61 149.227C129.544 149.23 129.477 149.219 129.415 149.196C129.353 149.173 129.296 149.138 129.248 149.093C129.167 149.002 129.122 148.885 129.122 148.763C129.122 148.641 129.167 148.524 129.248 148.433C129.296 148.387 129.352 148.351 129.415 148.327C129.477 148.303 129.543 148.292 129.61 148.294L131.326 148.359L130.448 146.935C130.4 146.858 130.374 146.768 130.374 146.677C130.375 146.612 130.39 146.548 130.416 146.488C130.442 146.429 130.48 146.375 130.527 146.33C130.62 146.238 130.744 146.187 130.875 146.186C130.959 146.187 131.042 146.211 131.113 146.257C131.184 146.303 131.241 146.368 131.276 146.444L132.12 147.977L132.958 146.454C132.998 146.373 133.059 146.304 133.135 146.255C133.211 146.206 133.299 146.179 133.389 146.176C133.452 146.176 133.514 146.189 133.572 146.215C133.629 146.24 133.68 146.278 133.722 146.325C133.768 146.371 133.804 146.426 133.829 146.487C133.853 146.547 133.866 146.612 133.865 146.677C133.864 146.763 133.84 146.847 133.796 146.92L132.898 148.359L134.644 148.294C134.708 148.288 134.773 148.295 134.834 148.316C134.895 148.337 134.951 148.37 134.998 148.414C135.045 148.459 135.082 148.512 135.107 148.572C135.131 148.632 135.143 148.696 135.14 148.76C135.141 148.883 135.097 149.001 135.016 149.093C134.969 149.139 134.913 149.175 134.852 149.198C134.79 149.221 134.725 149.231 134.659 149.227L132.908 149.172L133.776 150.586C133.825 150.665 133.851 150.756 133.851 150.849C133.851 150.914 133.838 150.979 133.811 151.039C133.785 151.099 133.746 151.152 133.697 151.196C133.654 151.242 133.602 151.279 133.544 151.305C133.486 151.331 133.423 151.344 133.36 151.345C133.275 151.343 133.193 151.317 133.123 151.269C133.054 151.222 133 151.155 132.968 151.077L132.134 149.589L131.311 151.077C131.273 151.159 131.212 151.228 131.135 151.275C131.059 151.323 130.97 151.347 130.88 151.345Z" fill="#263238"/>
<path d="M138.925 151.345C138.795 151.344 138.67 151.292 138.577 151.201C138.501 151.123 138.452 151.022 138.438 150.913C138.425 150.805 138.448 150.695 138.503 150.601L139.391 149.172L137.655 149.227C137.589 149.23 137.522 149.219 137.46 149.196C137.398 149.173 137.341 149.138 137.293 149.093C137.212 149.002 137.167 148.885 137.167 148.763C137.167 148.641 137.212 148.524 137.293 148.433C137.341 148.387 137.397 148.351 137.46 148.327C137.522 148.303 137.588 148.292 137.655 148.294L139.371 148.359L138.488 146.935C138.44 146.858 138.414 146.768 138.414 146.677C138.416 146.546 138.469 146.422 138.563 146.33C138.655 146.238 138.78 146.187 138.91 146.186C138.994 146.187 139.077 146.211 139.148 146.257C139.219 146.303 139.276 146.368 139.312 146.444L140.155 147.977L140.993 146.454C141.033 146.373 141.094 146.304 141.17 146.255C141.246 146.206 141.334 146.179 141.424 146.176C141.488 146.176 141.551 146.189 141.609 146.215C141.667 146.24 141.719 146.278 141.762 146.325C141.853 146.419 141.903 146.546 141.901 146.677C141.899 146.763 141.875 146.847 141.831 146.92L140.933 148.359L142.679 148.294C142.744 148.288 142.808 148.295 142.869 148.316C142.931 148.337 142.986 148.37 143.033 148.414C143.08 148.459 143.117 148.512 143.142 148.572C143.166 148.632 143.178 148.696 143.175 148.76C143.176 148.883 143.132 149.001 143.051 149.093C143.005 149.139 142.949 149.175 142.887 149.198C142.826 149.221 142.76 149.231 142.694 149.227L140.943 149.172L141.811 150.586C141.86 150.665 141.886 150.756 141.886 150.849C141.886 150.914 141.873 150.979 141.846 151.039C141.82 151.099 141.781 151.152 141.732 151.196C141.689 151.242 141.637 151.279 141.579 151.305C141.521 151.331 141.458 151.344 141.395 151.345C141.31 151.343 141.228 151.317 141.159 151.269C141.089 151.222 141.035 151.155 141.003 151.077L140.17 149.589L139.346 151.077C139.309 151.157 139.25 151.225 139.175 151.273C139.1 151.32 139.013 151.345 138.925 151.345Z" fill="#263238"/>
<path d="M146.97 151.345C146.841 151.343 146.719 151.291 146.628 151.201C146.579 151.157 146.54 151.104 146.513 151.044C146.487 150.984 146.473 150.919 146.474 150.854C146.475 150.764 146.501 150.677 146.548 150.601L147.436 149.172L145.7 149.227C145.636 149.232 145.572 149.223 145.512 149.202C145.451 149.18 145.396 149.147 145.349 149.103C145.303 149.059 145.266 149.006 145.241 148.947C145.216 148.888 145.203 148.824 145.204 148.76C145.204 148.7 145.215 148.64 145.238 148.583C145.261 148.527 145.295 148.476 145.338 148.433C145.384 148.385 145.439 148.348 145.501 148.324C145.563 148.3 145.629 148.29 145.695 148.294L147.411 148.359L146.528 146.935C146.48 146.858 146.455 146.768 146.454 146.677C146.456 146.546 146.509 146.422 146.603 146.33C146.695 146.238 146.82 146.187 146.95 146.186C147.034 146.187 147.117 146.211 147.188 146.257C147.259 146.303 147.316 146.368 147.352 146.444L148.195 147.977L149.038 146.454C149.077 146.374 149.138 146.305 149.213 146.256C149.288 146.207 149.375 146.18 149.465 146.176C149.528 146.176 149.591 146.189 149.649 146.215C149.707 146.24 149.759 146.278 149.802 146.325C149.893 146.419 149.943 146.546 149.941 146.677C149.941 146.762 149.918 146.846 149.876 146.92L148.979 148.359L150.72 148.294C150.786 148.29 150.852 148.3 150.914 148.324C150.975 148.348 151.031 148.385 151.077 148.433C151.161 148.521 151.208 148.639 151.206 148.76C151.205 148.883 151.159 149.002 151.077 149.093C151.03 149.139 150.974 149.175 150.912 149.198C150.851 149.221 150.785 149.231 150.72 149.227L148.969 149.172L149.837 150.586C149.886 150.665 149.911 150.756 149.911 150.849C149.909 150.979 149.856 151.104 149.762 151.196C149.672 151.288 149.549 151.341 149.42 151.345C149.336 151.343 149.254 151.317 149.184 151.269C149.114 151.222 149.06 151.155 149.028 151.077L148.195 149.589L147.372 151.077C147.336 151.154 147.279 151.22 147.209 151.267C147.138 151.315 147.055 151.341 146.97 151.345Z" fill="#263238"/>
<g style="mix-blend-mode:multiply">
<path d="M171.993 50.8599H84.191V56.3605H171.993V50.8599Z" fill="white"/>
</g>
<path d="M137.64 40.7265H118.544C118.199 40.7265 117.869 40.5896 117.625 40.3459C117.381 40.1022 117.245 39.7716 117.245 39.427V39.427C117.245 39.0823 117.381 38.7518 117.625 38.5081C117.869 38.2644 118.199 38.1274 118.544 38.1274H137.64C137.985 38.1274 138.315 38.2644 138.559 38.5081C138.803 38.7518 138.94 39.0823 138.94 39.427V39.427C138.94 39.7716 138.803 40.1022 138.559 40.3459C138.315 40.5896 137.985 40.7265 137.64 40.7265V40.7265Z" fill="white" stroke="#263238" stroke-width="1.33739" stroke-linecap="round" stroke-linejoin="round"/>
<path d="M133.3 200.751C133.301 199.721 132.996 198.713 132.424 197.856C131.852 196.999 131.039 196.33 130.087 195.935C129.135 195.541 128.088 195.437 127.077 195.638C126.066 195.839 125.138 196.335 124.409 197.063C123.681 197.792 123.185 198.721 122.984 199.731C122.783 200.742 122.887 201.79 123.281 202.741C123.676 203.693 124.344 204.507 125.202 205.078C126.059 205.65 127.067 205.955 128.097 205.954C129.476 205.953 130.799 205.404 131.775 204.429C132.75 203.453 133.299 202.131 133.3 200.751Z" fill="white"/>
<path d="M130.736 198.112H125.458V203.39H130.736V198.112Z" fill="white" stroke="#263238" stroke-width="1.33739" stroke-linecap="round" stroke-linejoin="round"/>
<path d="M190.96 140.864C190.96 140.864 184.046 123.296 190.201 121.207C196.609 119.03 196.327 130.631 196.079 136.286C195.558 148.368 194.224 150.615 193.227 147.664L190.96 140.864ZM188.882 154.568C190.781 157.048 191.317 154.479 187.89 142.878C186.283 137.422 182.791 126.386 177.434 130.527C172.291 134.495 184.532 148.879 184.532 148.879L188.882 154.568ZM185.211 164.637C187.022 166.244 187.056 164.216 182.756 155.838C180.737 151.915 176.467 143.974 172.97 147.902C169.612 151.692 181.055 160.902 181.055 160.902L185.211 164.637ZM181.243 176.611C183.054 178.223 183.088 176.189 178.788 167.816C176.769 163.893 172.499 155.947 169.002 159.88C165.664 163.68 177.072 172.891 177.072 172.891L181.243 176.611ZM192.701 152.237C189.804 153.368 192.106 154.598 204.203 154.563C209.877 154.563 221.464 154.305 218.994 148.001C216.628 141.945 199.397 149.658 199.397 149.658L192.701 152.237ZM189.403 160.292C186.337 160.823 188.351 162.489 200.215 164.86C205.776 165.976 217.179 168.035 216.013 161.388C214.897 154.98 196.476 159.117 196.476 159.117L189.403 160.292ZM185.712 170.128C183.103 170.505 184.77 171.958 194.744 174.24C199.422 175.311 209.019 177.32 208.186 171.651C207.392 166.195 191.719 169.28 191.719 169.28L185.712 170.128ZM182.91 179.239C180.356 179.889 182.166 181.159 192.334 182.369C197.096 182.935 206.852 183.917 205.428 178.366C204.054 173.039 188.797 177.756 188.797 177.756L182.91 179.239ZM197.859 142.352C196.371 145.685 199.461 145.179 209.967 136.013C214.887 131.713 224.757 122.715 216.94 118.236C209.436 113.931 201.366 134.704 201.366 134.704L197.859 142.352ZM183.297 191.109C181.724 192.026 183.267 192.383 190.479 190.945C193.862 190.275 200.741 188.787 198.415 185.851C196.163 183.024 186.937 188.976 186.937 188.976L183.297 191.109Z" fill="white"/>
<path opacity="0.3" d="M190.96 140.864C190.96 140.864 184.046 123.296 190.201 121.207C196.609 119.03 196.327 130.631 196.079 136.286C195.558 148.368 194.224 150.615 193.227 147.664L190.96 140.864ZM188.882 154.568C190.781 157.048 191.317 154.479 187.89 142.878C186.283 137.422 182.791 126.386 177.434 130.527C172.291 134.495 184.532 148.879 184.532 148.879L188.882 154.568ZM185.211 164.637C187.022 166.244 187.056 164.216 182.756 155.838C180.737 151.915 176.467 143.974 172.97 147.902C169.612 151.692 181.055 160.902 181.055 160.902L185.211 164.637ZM181.243 176.611C183.054 178.223 183.088 176.189 178.788 167.816C176.769 163.893 172.499 155.947 169.002 159.88C165.664 163.68 177.072 172.891 177.072 172.891L181.243 176.611ZM192.701 152.237C189.804 153.368 192.106 154.598 204.203 154.563C209.877 154.563 221.464 154.305 218.994 148.001C216.628 141.945 199.397 149.658 199.397 149.658L192.701 152.237ZM189.403 160.292C186.337 160.823 188.351 162.489 200.215 164.86C205.776 165.976 217.179 168.035 216.013 161.388C214.897 154.98 196.476 159.117 196.476 159.117L189.403 160.292ZM185.712 170.128C183.103 170.505 184.77 171.958 194.744 174.24C199.422 175.311 209.019 177.32 208.186 171.651C207.392 166.195 191.719 169.28 191.719 169.28L185.712 170.128ZM182.91 179.239C180.356 179.889 182.166 181.159 192.334 182.369C197.096 182.935 206.852 183.917 205.428 178.366C204.054 173.039 188.797 177.756 188.797 177.756L182.91 179.239ZM197.859 142.352C196.371 145.685 199.461 145.179 209.967 136.013C214.887 131.713 224.757 122.715 216.94 118.236C209.436 113.931 201.366 134.704 201.366 134.704L197.859 142.352ZM183.297 191.109C181.724 192.026 183.267 192.383 190.479 190.945C193.862 190.275 200.741 188.787 198.415 185.851C196.163 183.024 186.937 188.976 186.937 188.976L183.297 191.109Z" fill="white"/>
<path d="M194.01 149.043L192.805 128.99L194.01 149.043ZM190.196 155.66L182.578 138.414L190.196 155.66ZM209.858 150.645L191.6 153.264L209.858 150.645ZM186.248 164.955L176.363 152.272L186.248 164.955ZM187.984 161.066L201.604 161.751L187.984 161.066ZM184.76 170.793L195.176 171.824L184.76 170.793ZM182.245 176.973L177.072 169.191L182.245 176.973ZM181.65 179.721L193.896 179.835L181.65 179.721ZM179.17 202.695C179.252 202.689 179.328 202.651 179.382 202.588C179.436 202.526 179.463 202.445 179.458 202.363C178.679 190.667 183.203 171.512 190.459 155.789C195.097 145.74 213.275 125.989 213.468 125.791C213.527 125.732 213.56 125.653 213.56 125.57C213.56 125.487 213.527 125.408 213.468 125.349C213.44 125.32 213.406 125.298 213.368 125.282C213.331 125.266 213.291 125.258 213.25 125.258C213.21 125.258 213.169 125.266 213.132 125.282C213.095 125.298 213.061 125.32 213.032 125.349C212.848 125.548 194.596 145.373 189.918 155.511C182.528 171.616 178.064 190.424 178.858 202.403C178.864 202.482 178.899 202.556 178.957 202.61C179.015 202.664 179.091 202.694 179.17 202.695V202.695ZM194.005 149.351C194.087 149.345 194.164 149.308 194.219 149.247C194.274 149.186 194.302 149.105 194.298 149.023L193.113 128.96C193.111 128.919 193.101 128.879 193.083 128.842C193.066 128.805 193.041 128.772 193.01 128.745C192.98 128.718 192.944 128.697 192.906 128.684C192.867 128.67 192.826 128.665 192.785 128.667C192.703 128.673 192.627 128.71 192.572 128.771C192.517 128.832 192.489 128.913 192.493 128.995L193.698 149.048C193.702 149.127 193.736 149.201 193.793 149.256C193.85 149.31 193.926 149.341 194.005 149.341V149.351ZM190.305 155.942C190.38 155.909 190.438 155.847 190.467 155.771C190.497 155.695 190.496 155.611 190.464 155.536L182.84 138.29C182.808 138.215 182.746 138.156 182.67 138.126C182.594 138.096 182.509 138.098 182.434 138.131C182.359 138.164 182.3 138.225 182.27 138.302C182.24 138.378 182.242 138.463 182.275 138.538L189.894 155.784C189.918 155.839 189.957 155.886 190.007 155.92C190.057 155.953 190.116 155.971 190.176 155.972C190.228 155.975 190.279 155.965 190.325 155.942H190.305ZM191.625 153.562L209.872 150.953C209.917 150.952 209.96 150.942 210 150.923C210.04 150.904 210.075 150.877 210.104 150.843C210.132 150.81 210.153 150.771 210.166 150.728C210.178 150.686 210.182 150.642 210.176 150.598C210.17 150.554 210.154 150.512 210.131 150.475C210.108 150.437 210.077 150.405 210.04 150.381C210.004 150.356 209.962 150.34 209.919 150.332C209.875 150.325 209.831 150.327 209.788 150.338L191.54 152.947C191.459 152.952 191.383 152.989 191.329 153.051C191.275 153.112 191.247 153.192 191.253 153.274C191.258 153.356 191.295 153.432 191.357 153.486C191.418 153.54 191.498 153.567 191.58 153.562H191.625ZM186.422 165.203C186.486 165.152 186.528 165.078 186.539 164.996C186.549 164.914 186.526 164.832 186.476 164.766L176.586 152.059C176.535 151.993 176.461 151.95 176.378 151.939C176.296 151.929 176.213 151.951 176.147 152.002C176.081 152.052 176.038 152.127 176.028 152.209C176.017 152.292 176.039 152.375 176.09 152.441L186 165.168C186.029 165.205 186.066 165.235 186.108 165.256C186.15 165.276 186.196 165.287 186.243 165.287C186.317 165.283 186.387 165.254 186.441 165.203H186.422ZM201.877 161.765C201.88 161.683 201.85 161.604 201.794 161.543C201.739 161.483 201.661 161.447 201.579 161.443L187.984 160.754C187.908 160.759 187.836 160.792 187.782 160.847C187.729 160.901 187.697 160.974 187.693 161.05C187.69 161.127 187.714 161.202 187.762 161.262C187.81 161.321 187.879 161.361 187.954 161.374L201.574 162.063C201.656 162.066 201.736 162.036 201.797 161.98C201.857 161.925 201.893 161.848 201.897 161.765H201.877ZM195.464 171.854C195.468 171.813 195.465 171.772 195.454 171.733C195.442 171.693 195.423 171.656 195.397 171.624C195.371 171.592 195.339 171.566 195.303 171.547C195.267 171.527 195.227 171.516 195.186 171.512L184.77 170.485C184.729 170.481 184.689 170.485 184.65 170.497C184.611 170.509 184.575 170.528 184.543 170.554C184.512 170.58 184.486 170.611 184.467 170.647C184.448 170.683 184.436 170.722 184.433 170.763C184.426 170.844 184.451 170.925 184.503 170.988C184.555 171.051 184.629 171.091 184.71 171.1L195.126 172.132H195.156C195.236 172.137 195.315 172.111 195.376 172.06C195.437 172.008 195.476 171.934 195.483 171.854H195.464ZM182.394 177.231C182.463 177.185 182.511 177.114 182.528 177.033C182.544 176.953 182.528 176.868 182.483 176.799L177.335 169.017C177.288 168.95 177.217 168.904 177.136 168.888C177.056 168.872 176.972 168.888 176.903 168.933C176.834 168.978 176.786 169.049 176.77 169.13C176.753 169.211 176.769 169.295 176.814 169.364L181.963 177.146C181.992 177.189 182.031 177.224 182.077 177.248C182.123 177.272 182.174 177.285 182.225 177.285C182.293 177.289 182.359 177.27 182.414 177.231H182.394ZM194.209 179.835C194.208 179.753 194.175 179.675 194.118 179.617C194.06 179.559 193.983 179.525 193.901 179.522L181.655 179.408C181.573 179.408 181.495 179.441 181.438 179.498C181.38 179.556 181.348 179.634 181.348 179.716C181.346 179.757 181.353 179.798 181.368 179.836C181.383 179.874 181.405 179.909 181.434 179.938C181.463 179.967 181.497 179.99 181.535 180.006C181.573 180.021 181.614 180.029 181.655 180.028L193.901 180.142C193.943 180.144 193.985 180.138 194.024 180.123C194.064 180.109 194.1 180.087 194.13 180.058C194.161 180.029 194.185 179.995 194.202 179.956C194.219 179.918 194.228 179.877 194.229 179.835H194.209ZM177.776 198.147C177.801 198.093 179.889 192.339 186.169 190.965C186.25 190.947 186.32 190.898 186.365 190.828C186.409 190.759 186.424 190.674 186.407 190.593C186.387 190.514 186.337 190.445 186.267 190.402C186.198 190.358 186.115 190.343 186.035 190.36C179.413 191.808 177.216 197.884 177.191 197.944C177.165 198.022 177.171 198.107 177.207 198.181C177.244 198.255 177.307 198.312 177.384 198.341H177.484C177.55 198.346 177.616 198.33 177.672 198.296C177.728 198.261 177.772 198.209 177.796 198.147H177.776ZM179.17 202.695C179.252 202.689 179.328 202.651 179.382 202.588C179.436 202.526 179.463 202.445 179.458 202.363C178.679 190.667 183.203 171.512 190.459 155.789C195.097 145.74 213.275 125.989 213.468 125.791C213.527 125.732 213.56 125.653 213.56 125.57C213.56 125.487 213.527 125.408 213.468 125.349C213.44 125.32 213.406 125.298 213.368 125.282C213.331 125.266 213.291 125.258 213.25 125.258C213.21 125.258 213.169 125.266 213.132 125.282C213.095 125.298 213.061 125.32 213.032 125.349C212.848 125.548 194.596 145.373 189.918 155.511C182.528 171.616 178.064 190.424 178.858 202.403C178.864 202.482 178.899 202.556 178.957 202.61C179.015 202.664 179.091 202.694 179.17 202.695V202.695ZM194.005 149.351C194.087 149.345 194.164 149.308 194.219 149.247C194.274 149.186 194.302 149.105 194.298 149.023L193.113 128.96C193.111 128.919 193.101 128.879 193.083 128.842C193.066 128.805 193.041 128.772 193.01 128.745C192.98 128.718 192.944 128.697 192.906 128.684C192.867 128.67 192.826 128.665 192.785 128.667C192.703 128.673 192.627 128.71 192.572 128.771C192.517 128.832 192.489 128.913 192.493 128.995L193.698 149.048C193.702 149.127 193.736 149.201 193.793 149.256C193.85 149.31 193.926 149.341 194.005 149.341V149.351ZM190.305 155.942C190.38 155.909 190.438 155.847 190.467 155.771C190.497 155.695 190.496 155.611 190.464 155.536L182.84 138.29C182.808 138.215 182.746 138.156 182.67 138.126C182.594 138.096 182.509 138.098 182.434 138.131C182.359 138.164 182.3 138.225 182.27 138.302C182.24 138.378 182.242 138.463 182.275 138.538L189.894 155.784C189.918 155.839 189.957 155.886 190.007 155.92C190.057 155.953 190.116 155.971 190.176 155.972C190.228 155.975 190.279 155.965 190.325 155.942H190.305ZM191.625 153.562L209.872 150.953C209.917 150.952 209.96 150.942 210 150.923C210.04 150.904 210.075 150.877 210.104 150.843C210.132 150.81 210.153 150.771 210.166 150.728C210.178 150.686 210.182 150.642 210.176 150.598C210.17 150.554 210.154 150.512 210.131 150.475C210.108 150.437 210.077 150.405 210.04 150.381C210.004 150.356 209.962 150.34 209.919 150.332C209.875 150.325 209.831 150.327 209.788 150.338L191.54 152.947C191.459 152.952 191.383 152.989 191.329 153.051C191.275 153.112 191.247 153.192 191.253 153.274C191.258 153.356 191.295 153.432 191.357 153.486C191.418 153.54 191.498 153.567 191.58 153.562H191.625ZM186.422 165.203C186.486 165.152 186.528 165.078 186.539 164.996C186.549 164.914 186.526 164.832 186.476 164.766L176.586 152.059C176.561 152.026 176.53 151.999 176.494 151.978C176.458 151.958 176.419 151.945 176.378 151.939C176.337 151.934 176.296 151.937 176.256 151.948C176.217 151.958 176.18 151.977 176.147 152.002C176.114 152.027 176.087 152.058 176.067 152.094C176.046 152.129 176.033 152.169 176.028 152.209C176.022 152.25 176.025 152.292 176.036 152.331C176.046 152.371 176.065 152.408 176.09 152.441L186 165.168C186.029 165.205 186.066 165.235 186.108 165.256C186.15 165.276 186.196 165.287 186.243 165.287C186.317 165.283 186.387 165.254 186.441 165.203H186.422ZM201.877 161.765C201.88 161.683 201.85 161.604 201.794 161.543C201.739 161.483 201.661 161.447 201.579 161.443L187.984 160.754C187.908 160.759 187.836 160.792 187.782 160.847C187.729 160.901 187.697 160.974 187.693 161.05C187.69 161.127 187.714 161.202 187.762 161.262C187.81 161.321 187.879 161.361 187.954 161.374L201.574 162.063C201.656 162.066 201.736 162.036 201.797 161.98C201.857 161.925 201.893 161.848 201.897 161.765H201.877ZM195.464 171.854C195.468 171.813 195.465 171.772 195.454 171.733C195.442 171.693 195.423 171.656 195.397 171.624C195.371 171.592 195.339 171.566 195.303 171.547C195.267 171.527 195.227 171.516 195.186 171.512L184.77 170.485C184.729 170.481 184.689 170.485 184.65 170.497C184.611 170.509 184.575 170.528 184.543 170.554C184.512 170.58 184.486 170.611 184.467 170.647C184.448 170.683 184.436 170.722 184.433 170.763C184.426 170.844 184.451 170.925 184.503 170.988C184.555 171.051 184.629 171.091 184.71 171.1L195.126 172.132H195.156C195.236 172.137 195.315 172.111 195.376 172.06C195.437 172.008 195.476 171.934 195.483 171.854H195.464ZM182.394 177.231C182.463 177.185 182.511 177.114 182.528 177.033C182.544 176.953 182.528 176.868 182.483 176.799L177.335 169.017C177.288 168.95 177.217 168.904 177.136 168.888C177.056 168.872 176.972 168.888 176.903 168.933C176.834 168.978 176.786 169.049 176.77 169.13C176.753 169.211 176.769 169.295 176.814 169.364L181.963 177.146C181.992 177.189 182.031 177.224 182.077 177.248C182.123 177.272 182.174 177.285 182.225 177.285C182.293 177.289 182.359 177.27 182.414 177.231H182.394ZM194.209 179.835C194.208 179.753 194.175 179.675 194.118 179.617C194.06 179.559 193.983 179.525 193.901 179.522L181.655 179.408C181.573 179.408 181.495 179.441 181.438 179.498C181.38 179.556 181.348 179.634 181.348 179.716C181.346 179.757 181.353 179.798 181.368 179.836C181.383 179.874 181.405 179.909 181.434 179.938C181.463 179.967 181.497 179.99 181.535 180.006C181.573 180.021 181.614 180.029 181.655 180.028L193.901 180.142C193.943 180.144 193.985 180.138 194.024 180.123C194.064 180.109 194.1 180.087 194.13 180.058C194.161 180.029 194.185 179.995 194.202 179.956C194.219 179.918 194.228 179.877 194.229 179.835H194.209ZM177.776 198.147C177.801 198.093 179.889 192.339 186.169 190.965C186.25 190.947 186.32 190.898 186.365 190.828C186.409 190.759 186.424 190.674 186.407 190.593C186.387 190.514 186.337 190.445 186.267 190.402C186.198 190.358 186.115 190.343 186.035 190.36C179.413 191.808 177.216 197.884 177.191 197.944C177.165 198.022 177.171 198.107 177.207 198.181C177.244 198.255 177.307 198.312 177.384 198.341H177.484C177.55 198.346 177.616 198.33 177.672 198.296C177.728 198.261 177.772 198.209 177.796 198.147H177.776Z" fill="white"/>
<path opacity="0.2" d="M194.01 149.043L192.805 128.99L194.01 149.043ZM190.196 155.66L182.578 138.414L190.196 155.66ZM209.858 150.645L191.6 153.264L209.858 150.645ZM186.248 164.955L176.363 152.272L186.248 164.955ZM187.984 161.066L201.604 161.751L187.984 161.066ZM184.76 170.793L195.176 171.824L184.76 170.793ZM182.245 176.973L177.072 169.191L182.245 176.973ZM181.65 179.721L193.896 179.835L181.65 179.721ZM179.17 202.695C179.252 202.689 179.328 202.651 179.382 202.588C179.436 202.526 179.463 202.445 179.458 202.363C178.679 190.667 183.203 171.512 190.459 155.789C195.097 145.74 213.275 125.989 213.468 125.791C213.527 125.732 213.56 125.653 213.56 125.57C213.56 125.487 213.527 125.408 213.468 125.349C213.44 125.32 213.406 125.298 213.368 125.282C213.331 125.266 213.291 125.258 213.25 125.258C213.21 125.258 213.169 125.266 213.132 125.282C213.095 125.298 213.061 125.32 213.032 125.349C212.848 125.548 194.596 145.373 189.918 155.511C182.528 171.616 178.064 190.424 178.858 202.403C178.864 202.482 178.899 202.556 178.957 202.61C179.015 202.664 179.091 202.694 179.17 202.695V202.695ZM194.005 149.351C194.087 149.345 194.164 149.308 194.219 149.247C194.274 149.186 194.302 149.105 194.298 149.023L193.113 128.96C193.111 128.919 193.101 128.879 193.083 128.842C193.066 128.805 193.041 128.772 193.01 128.745C192.98 128.718 192.944 128.697 192.906 128.684C192.867 128.67 192.826 128.665 192.785 128.667C192.703 128.673 192.627 128.71 192.572 128.771C192.517 128.832 192.489 128.913 192.493 128.995L193.698 149.048C193.702 149.127 193.736 149.201 193.793 149.256C193.85 149.31 193.926 149.341 194.005 149.341V149.351ZM190.305 155.942C190.38 155.909 190.438 155.847 190.467 155.771C190.497 155.695 190.496 155.611 190.464 155.536L182.84 138.29C182.808 138.215 182.746 138.156 182.67 138.126C182.594 138.096 182.509 138.098 182.434 138.131C182.359 138.164 182.3 138.225 182.27 138.302C182.24 138.378 182.242 138.463 182.275 138.538L189.894 155.784C189.918 155.839 189.957 155.886 190.007 155.92C190.057 155.953 190.116 155.971 190.176 155.972C190.228 155.975 190.279 155.965 190.325 155.942H190.305ZM191.625 153.562L209.872 150.953C209.917 150.952 209.96 150.942 210 150.923C210.04 150.904 210.075 150.877 210.104 150.843C210.132 150.81 210.153 150.771 210.166 150.728C210.178 150.686 210.182 150.642 210.176 150.598C210.17 150.554 210.154 150.512 210.131 150.475C210.108 150.437 210.077 150.405 210.04 150.381C210.004 150.356 209.962 150.34 209.919 150.332C209.875 150.325 209.831 150.327 209.788 150.338L191.54 152.947C191.459 152.952 191.383 152.989 191.329 153.051C191.275 153.112 191.247 153.192 191.253 153.274C191.258 153.356 191.295 153.432 191.357 153.486C191.418 153.54 191.498 153.567 191.58 153.562H191.625ZM186.422 165.203C186.486 165.152 186.528 165.078 186.539 164.996C186.549 164.914 186.526 164.832 186.476 164.766L176.586 152.059C176.535 151.993 176.461 151.95 176.378 151.939C176.296 151.929 176.213 151.951 176.147 152.002C176.081 152.052 176.038 152.127 176.028 152.209C176.017 152.292 176.039 152.375 176.09 152.441L186 165.168C186.029 165.205 186.066 165.235 186.108 165.256C186.15 165.276 186.196 165.287 186.243 165.287C186.317 165.283 186.387 165.254 186.441 165.203H186.422ZM201.877 161.765C201.88 161.683 201.85 161.604 201.794 161.543C201.739 161.483 201.661 161.447 201.579 161.443L187.984 160.754C187.908 160.759 187.836 160.792 187.782 160.847C187.729 160.901 187.697 160.974 187.693 161.05C187.69 161.127 187.714 161.202 187.762 161.262C187.81 161.321 187.879 161.361 187.954 161.374L201.574 162.063C201.656 162.066 201.736 162.036 201.797 161.98C201.857 161.925 201.893 161.848 201.897 161.765H201.877ZM195.464 171.854C195.468 171.813 195.465 171.772 195.454 171.733C195.442 171.693 195.423 171.656 195.397 171.624C195.371 171.592 195.339 171.566 195.303 171.547C195.267 171.527 195.227 171.516 195.186 171.512L184.77 170.485C184.729 170.481 184.689 170.485 184.65 170.497C184.611 170.509 184.575 170.528 184.543 170.554C184.512 170.58 184.486 170.611 184.467 170.647C184.448 170.683 184.436 170.722 184.433 170.763C184.426 170.844 184.451 170.925 184.503 170.988C184.555 171.051 184.629 171.091 184.71 171.1L195.126 172.132H195.156C195.236 172.137 195.315 172.111 195.376 172.06C195.437 172.008 195.476 171.934 195.483 171.854H195.464ZM182.394 177.231C182.463 177.185 182.511 177.114 182.528 177.033C182.544 176.953 182.528 176.868 182.483 176.799L177.335 169.017C177.288 168.95 177.217 168.904 177.136 168.888C177.056 168.872 176.972 168.888 176.903 168.933C176.834 168.978 176.786 169.049 176.77 169.13C176.753 169.211 176.769 169.295 176.814 169.364L181.963 177.146C181.992 177.189 182.031 177.224 182.077 177.248C182.123 177.272 182.174 177.285 182.225 177.285C182.293 177.289 182.359 177.27 182.414 177.231H182.394ZM194.209 179.835C194.208 179.753 194.175 179.675 194.118 179.617C194.06 179.559 193.983 179.525 193.901 179.522L181.655 179.408C181.573 179.408 181.495 179.441 181.438 179.498C181.38 179.556 181.348 179.634 181.348 179.716C181.346 179.757 181.353 179.798 181.368 179.836C181.383 179.874 181.405 179.909 181.434 179.938C181.463 179.967 181.497 179.99 181.535 180.006C181.573 180.021 181.614 180.029 181.655 180.028L193.901 180.142C193.943 180.144 193.985 180.138 194.024 180.123C194.064 180.109 194.1 180.087 194.13 180.058C194.161 180.029 194.185 179.995 194.202 179.956C194.219 179.918 194.228 179.877 194.229 179.835H194.209ZM177.776 198.147C177.801 198.093 179.889 192.339 186.169 190.965C186.25 190.947 186.32 190.898 186.365 190.828C186.409 190.759 186.424 190.674 186.407 190.593C186.387 190.514 186.337 190.445 186.267 190.402C186.198 190.358 186.115 190.343 186.035 190.36C179.413 191.808 177.216 197.884 177.191 197.944C177.165 198.022 177.171 198.107 177.207 198.181C177.244 198.255 177.307 198.312 177.384 198.341H177.484C177.55 198.346 177.616 198.33 177.672 198.296C177.728 198.261 177.772 198.209 177.796 198.147H177.776ZM179.17 202.695C179.252 202.689 179.328 202.651 179.382 202.588C179.436 202.526 179.463 202.445 179.458 202.363C178.679 190.667 183.203 171.512 190.459 155.789C195.097 145.74 213.275 125.989 213.468 125.791C213.527 125.732 213.56 125.653 213.56 125.57C213.56 125.487 213.527 125.408 213.468 125.349C213.44 125.32 213.406 125.298 213.368 125.282C213.331 125.266 213.291 125.258 213.25 125.258C213.21 125.258 213.169 125.266 213.132 125.282C213.095 125.298 213.061 125.32 213.032 125.349C212.848 125.548 194.596 145.373 189.918 155.511C182.528 171.616 178.064 190.424 178.858 202.403C178.864 202.482 178.899 202.556 178.957 202.61C179.015 202.664 179.091 202.694 179.17 202.695V202.695ZM194.005 149.351C194.087 149.345 194.164 149.308 194.219 149.247C194.274 149.186 194.302 149.105 194.298 149.023L193.113 128.96C193.111 128.919 193.101 128.879 193.083 128.842C193.066 128.805 193.041 128.772 193.01 128.745C192.98 128.718 192.944 128.697 192.906 128.684C192.867 128.67 192.826 128.665 192.785 128.667C192.703 128.673 192.627 128.71 192.572 128.771C192.517 128.832 192.489 128.913 192.493 128.995L193.698 149.048C193.702 149.127 193.736 149.201 193.793 149.256C193.85 149.31 193.926 149.341 194.005 149.341V149.351ZM190.305 155.942C190.38 155.909 190.438 155.847 190.467 155.771C190.497 155.695 190.496 155.611 190.464 155.536L182.84 138.29C182.808 138.215 182.746 138.156 182.67 138.126C182.594 138.096 182.509 138.098 182.434 138.131C182.359 138.164 182.3 138.225 182.27 138.302C182.24 138.378 182.242 138.463 182.275 138.538L189.894 155.784C189.918 155.839 189.957 155.886 190.007 155.92C190.057 155.953 190.116 155.971 190.176 155.972C190.228 155.975 190.279 155.965 190.325 155.942H190.305ZM191.625 153.562L209.872 150.953C209.917 150.952 209.96 150.942 210 150.923C210.04 150.904 210.075 150.877 210.104 150.843C210.132 150.81 210.153 150.771 210.166 150.728C210.178 150.686 210.182 150.642 210.176 150.598C210.17 150.554 210.154 150.512 210.131 150.475C210.108 150.437 210.077 150.405 210.04 150.381C210.004 150.356 209.962 150.34 209.919 150.332C209.875 150.325 209.831 150.327 209.788 150.338L191.54 152.947C191.459 152.952 191.383 152.989 191.329 153.051C191.275 153.112 191.247 153.192 191.253 153.274C191.258 153.356 191.295 153.432 191.357 153.486C191.418 153.54 191.498 153.567 191.58 153.562H191.625ZM186.422 165.203C186.486 165.152 186.528 165.078 186.539 164.996C186.549 164.914 186.526 164.832 186.476 164.766L176.586 152.059C176.561 152.026 176.53 151.999 176.494 151.978C176.458 151.958 176.419 151.945 176.378 151.939C176.337 151.934 176.296 151.937 176.256 151.948C176.217 151.958 176.18 151.977 176.147 152.002C176.114 152.027 176.087 152.058 176.067 152.094C176.046 152.129 176.033 152.169 176.028 152.209C176.022 152.25 176.025 152.292 176.036 152.331C176.046 152.371 176.065 152.408 176.09 152.441L186 165.168C186.029 165.205 186.066 165.235 186.108 165.256C186.15 165.276 186.196 165.287 186.243 165.287C186.317 165.283 186.387 165.254 186.441 165.203H186.422ZM201.877 161.765C201.88 161.683 201.85 161.604 201.794 161.543C201.739 161.483 201.661 161.447 201.579 161.443L187.984 160.754C187.908 160.759 187.836 160.792 187.782 160.847C187.729 160.901 187.697 160.974 187.693 161.05C187.69 161.127 187.714 161.202 187.762 161.262C187.81 161.321 187.879 161.361 187.954 161.374L201.574 162.063C201.656 162.066 201.736 162.036 201.797 161.98C201.857 161.925 201.893 161.848 201.897 161.765H201.877ZM195.464 171.854C195.468 171.813 195.465 171.772 195.454 171.733C195.442 171.693 195.423 171.656 195.397 171.624C195.371 171.592 195.339 171.566 195.303 171.547C195.267 171.527 195.227 171.516 195.186 171.512L184.77 170.485C184.729 170.481 184.689 170.485 184.65 170.497C184.611 170.509 184.575 170.528 184.543 170.554C184.512 170.58 184.486 170.611 184.467 170.647C184.448 170.683 184.436 170.722 184.433 170.763C184.426 170.844 184.451 170.925 184.503 170.988C184.555 171.051 184.629 171.091 184.71 171.1L195.126 172.132H195.156C195.236 172.137 195.315 172.111 195.376 172.06C195.437 172.008 195.476 171.934 195.483 171.854H195.464ZM182.394 177.231C182.463 177.185 182.511 177.114 182.528 177.033C182.544 176.953 182.528 176.868 182.483 176.799L177.335 169.017C177.288 168.95 177.217 168.904 177.136 168.888C177.056 168.872 176.972 168.888 176.903 168.933C176.834 168.978 176.786 169.049 176.77 169.13C176.753 169.211 176.769 169.295 176.814 169.364L181.963 177.146C181.992 177.189 182.031 177.224 182.077 177.248C182.123 177.272 182.174 177.285 182.225 177.285C182.293 177.289 182.359 177.27 182.414 177.231H182.394ZM194.209 179.835C194.208 179.753 194.175 179.675 194.118 179.617C194.06 179.559 193.983 179.525 193.901 179.522L181.655 179.408C181.573 179.408 181.495 179.441 181.438 179.498C181.38 179.556 181.348 179.634 181.348 179.716C181.346 179.757 181.353 179.798 181.368 179.836C181.383 179.874 181.405 179.909 181.434 179.938C181.463 179.967 181.497 179.99 181.535 180.006C181.573 180.021 181.614 180.029 181.655 180.028L193.901 180.142C193.943 180.144 193.985 180.138 194.024 180.123C194.064 180.109 194.1 180.087 194.13 180.058C194.161 180.029 194.185 179.995 194.202 179.956C194.219 179.918 194.228 179.877 194.229 179.835H194.209ZM177.776 198.147C177.801 198.093 179.889 192.339 186.169 190.965C186.25 190.947 186.32 190.898 186.365 190.828C186.409 190.759 186.424 190.674 186.407 190.593C186.387 190.514 186.337 190.445 186.267 190.402C186.198 190.358 186.115 190.343 186.035 190.36C179.413 191.808 177.216 197.884 177.191 197.944C177.165 198.022 177.171 198.107 177.207 198.181C177.244 198.255 177.307 198.312 177.384 198.341H177.484C177.55 198.346 177.616 198.33 177.672 198.296C177.728 198.261 177.772 198.209 177.796 198.147H177.776Z" fill="black"/>
<path d="M187.27 193.951H173.228V196.857H174.453L176.988 212.714H183.51L186.045 196.857H187.27V193.951Z" fill="white"/>
<path opacity="0.3" d="M187.27 193.951H173.228V196.857H174.453L176.988 212.714H183.51L186.045 196.857H187.27V193.951Z" fill="white"/>
<path d="M60.8493 106.06L44.516 100.728L43.0627 96.8885L39.7445 96.7844L33.723 95.6436L34.4472 96.8885L42.0261 102.389L43.896 103.322L60.9782 112.245L60.8493 106.06Z" fill="white" stroke="#263238" stroke-width="1.00396" stroke-miterlimit="10"/>
<path d="M43.0627 96.8885L41.5053 95.9561L38.3954 97.0968L38.9112 97.7169L43.0627 96.8885Z" fill="white" stroke="#263238" stroke-width="1.00396" stroke-linejoin="round"/>
<path d="M60.8493 106.06L44.516 100.728L43.0627 96.8885L39.7445 96.7844L33.723 95.6436L34.4472 96.8885L42.0261 102.389L43.896 103.322L60.9782 112.245L60.8493 106.06Z" fill="white"/>
<path opacity="0.5" d="M60.8493 106.06L44.516 100.728L43.0627 96.8885L39.7445 96.7844L33.723 95.6436L34.4472 96.8885L42.0261 102.389L43.896 103.322L60.9782 112.245L60.8493 106.06Z" fill="white" stroke="#263238" stroke-width="1.00396" stroke-miterlimit="10"/>
<path d="M60.8493 106.06L44.516 100.728L43.0627 96.8885L39.7445 96.7844L33.723 95.6436L34.4472 96.8885L42.0261 102.389L43.896 103.322L60.9782 112.245L60.8493 106.06Z" stroke="#263238" stroke-width="1.00396" stroke-miterlimit="10"/>
<path d="M43.0627 96.8885L41.5053 95.9561L38.3954 97.0968L38.9112 97.7169L43.0627 96.8885Z" fill="white"/>
<path opacity="0.5" d="M43.0627 96.8885L41.5053 95.9561L38.3954 97.0968L38.9112 97.7169L43.0627 96.8885Z" fill="white" stroke="#263238" stroke-width="1.00396" stroke-linejoin="round"/>
<path d="M43.0627 96.8885L41.5053 95.9561L38.3954 97.0968L38.9112 97.7169L43.0627 96.8885Z" stroke="#263238" stroke-width="1.00396" stroke-linejoin="round"/>
<path d="M64.3163 71.4535C64.3163 71.4535 64.0633 73.6855 64.6933 75.1189C65.3232 76.5524 68.82 81.4082 68.82 81.4082L62.2926 86.641C62.2926 86.641 59.5845 81.185 59.0686 80.3021C58.5528 79.4193 57.9328 75.6199 59.6142 72.8969C61.2957 70.1738 63.7161 69.4397 64.3163 71.4535Z" fill="white"/>
<g style="mix-blend-mode:multiply" opacity="0.5">
<path d="M60.9633 78.6255L63.7955 84.4981L62.2877 86.6458L59.4406 81.5618L60.9633 78.6255Z" fill="white"/>
</g>
<path d="M64.3163 71.4535C64.3163 71.4535 64.0633 73.6855 64.6933 75.1189C65.3232 76.5524 68.82 81.4082 68.82 81.4082L62.2926 86.641C62.2926 86.641 59.5845 81.185 59.0686 80.3021C58.5528 79.4193 57.9328 75.6199 59.6142 72.8969C61.2957 70.1738 63.7161 69.4397 64.3163 71.4535Z" stroke="#263238" stroke-width="1.00396" stroke-miterlimit="10"/>
<path d="M66.34 67.3666C65.9382 64.8866 63.0961 59.8422 58.5875 60.0357C55.6611 60.1646 54.2921 60.7549 53.0224 61.4741C51.9874 62.0839 51.0226 62.8058 50.1456 63.6267C47.9433 66.2704 47.1696 66.9946 47.5961 69.0182C47.5612 69.8254 47.6876 70.6315 47.9681 71.3891C48.6427 73.1896 49.104 74.3651 49.6893 75.2232C49.5107 76.0614 49.0445 78.2736 49.0197 78.7795C48.9949 79.2854 50.5077 78.9333 51.2715 78.7398C52.6901 81.9142 55.2891 84.1165 56.0976 84.3694C57.5062 84.8109 59.7333 82.4946 60.9137 80.699C62.0942 78.9035 61.2014 76.8848 61.2064 76.0813C61.2113 75.2778 63.86 73.512 64.8421 72.9515C65.8241 72.391 66.7368 69.8416 66.34 67.3666Z" fill="white"/>
<g style="mix-blend-mode:multiply" opacity="0.5">
<path d="M47.616 69.0181C47.581 69.8252 47.7075 70.6313 47.988 71.3889C48.6625 73.1894 49.1238 74.3649 49.7091 75.223C49.5305 76.0613 49.0643 78.2734 49.0395 78.7793C49.0147 79.2853 50.5275 78.9331 51.2913 78.7397C52.7099 81.9141 55.3089 84.1163 56.1174 84.3693C57.5261 84.8107 59.7531 82.4944 60.9336 80.6989C61.2285 80.2506 61.42 79.7423 61.4941 79.2109C61.4296 78.9777 61.3849 78.8339 61.3849 78.8339C61.3849 78.8339 60.7203 81.3883 59.4009 81.056C58.0816 80.7237 56.0629 78.08 54.9369 77.1673C53.811 76.2547 54.2723 75.0544 54.0491 73.6953C53.8259 72.3363 50.4928 71.1409 50.2696 70.3622C50.0464 69.5835 50.8251 66.3595 50.8251 66.3595C50.8251 66.3595 52.0899 64.6731 51.8171 65.3675C51.6243 65.9696 51.5544 66.6043 51.6114 67.2339C51.6685 67.8636 51.8515 68.4753 52.1494 69.0329C52.3585 69.4729 52.6902 69.8432 53.1046 70.0992C53.519 70.3553 53.9986 70.4862 54.4856 70.4763L55.6958 64.4797L53.1414 62.3667L50.1654 63.6067C47.9433 66.2702 47.1845 66.9944 47.616 69.0181Z" fill="white"/>
</g>
<path d="M66.34 67.3666C65.9382 64.8866 63.0961 59.8422 58.5875 60.0357C55.6611 60.1646 54.2921 60.7549 53.0224 61.4741C51.9874 62.0839 51.0226 62.8058 50.1456 63.6267C47.9433 66.2704 47.1696 66.9946 47.5961 69.0182C47.5612 69.8254 47.6876 70.6315 47.9681 71.3891C48.6427 73.1896 49.104 74.3651 49.6893 75.2232C49.5107 76.0614 49.0445 78.2736 49.0197 78.7795C48.9949 79.2854 50.5077 78.9333 51.2715 78.7398C52.6901 81.9142 55.2891 84.1165 56.0976 84.3694C57.5062 84.8109 59.7333 82.4946 60.9137 80.699C62.0942 78.9035 61.2014 76.8848 61.2064 76.0813C61.2113 75.2778 63.86 73.512 64.8421 72.9515C65.8241 72.391 66.7368 69.8416 66.34 67.3666Z" stroke="#263238" stroke-miterlimit="10"/>
<path d="M50.3043 73.7251L50.8003 75.1436C50.8003 75.1436 51.8667 75.4958 53.1662 74.0773" stroke="#263238" stroke-miterlimit="10" stroke-linecap="round"/>
<path d="M53.9697 80.3519C53.9697 80.3519 55.1502 80.2328 55.6264 78.5762" stroke="#263238" stroke-miterlimit="10" stroke-linecap="round"/>
<path d="M49.476 72.5396C49.476 72.5396 49.8281 71.4731 51.956 71.4731" stroke="#263238" stroke-miterlimit="10" stroke-linecap="round"/>
<path d="M60.383 58.0615C58.8369 57.8392 57.2777 57.7199 55.7157 57.7044C55.7157 57.7044 51.0434 55.0111 46.5546 57.883C42.0658 60.7548 44.2234 65.7842 44.2234 67.0391C44.2234 68.294 42.785 68.299 43.6827 69.9159C44.5805 71.5329 47.616 70.6401 47.616 70.6401C47.6481 70.0302 47.8092 69.4341 48.0888 68.8912C48.3684 68.3482 48.7601 67.8708 49.2379 67.4905C50.8549 66.2356 52.1445 65.9628 52.6802 66.3249C52.6802 66.3249 52.323 69.0182 52.8587 70.0945C52.8587 70.0945 54.6542 70.9923 55.1949 70.9923C55.7355 70.9923 54.8427 71.7511 56.6333 72.4257C56.9595 72.5428 57.3084 72.5828 57.6527 72.5423C57.9969 72.5019 58.3271 72.3822 58.6173 72.1926C58.8802 71.1014 59.4555 69.4596 60.5269 69.8415C62.0992 70.402 63.5327 74.2708 61.4048 75.5902C63.9642 76.0564 67.0642 71.5279 67.2477 67.4012C67.4312 63.2745 63.0416 58.5278 60.383 58.0615Z" fill="#263238"/>
<path d="M52.7595 64.5542C52.7595 64.5542 54.0789 63.8449 55.6958 65.3627C57.3128 66.8805 60.4574 68.9091 64.6238 67.7931" stroke="white" stroke-width="0.5" stroke-linecap="round" stroke-linejoin="round"/>
<path d="M52.576 63.339C52.576 63.339 53.4837 61.9204 55.0014 61.9204C56.5192 61.9204 60.0656 64.0483 62.8977 64.0483" stroke="white" stroke-width="0.5" stroke-linecap="round" stroke-linejoin="round"/>
<path d="M51.5443 66.0719C51.5443 66.0719 49.8232 63.949 48.2062 65.6701C46.5893 67.3913 47.616 69.0181 47.616 69.0181" stroke="white" stroke-width="0.5" stroke-linecap="round" stroke-linejoin="round"/>
<path d="M44.6648 67.4906C45.6511 66.6011 46.2642 65.3713 46.381 64.0483C46.5843 61.8213 49.6248 59.8968 51.5443 61.7221" stroke="white" stroke-width="0.5" stroke-linecap="round" stroke-linejoin="round"/>
<path d="M47.7995 59.3907C47.7995 59.3907 50.84 56.4544 53.3696 60.1992" stroke="white" stroke-width="0.5" stroke-linecap="round" stroke-linejoin="round"/>
<path d="M72.545 203.762C72.545 203.762 74.4149 206.668 74.2066 208.538L74.0032 210.408C74.0032 210.408 67.1435 212.288 65.6902 212.288C64.237 212.288 56.544 211.559 56.544 211.559L56.2117 210.239C56.1884 210.142 56.1994 210.04 56.2427 209.949C56.2861 209.859 56.3592 209.786 56.4497 209.743L63.3094 206.544L65.472 204.178L72.545 203.762Z" fill="white" stroke="#263238" stroke-width="1.00396" stroke-miterlimit="10"/>
<path d="M66.7318 210.825C68.5918 210.968 72.1233 209.833 74.1718 209.108L74.028 210.408C74.028 210.408 67.1435 212.288 65.6902 212.288C64.237 212.288 56.544 211.559 56.544 211.559L56.3059 210.616C57.536 210.621 64.2717 210.636 66.7318 210.825Z" fill="white" stroke="#263238" stroke-width="1.00396" stroke-miterlimit="10"/>
<path d="M63.3194 206.544L53.3349 210.889C53.3349 210.889 52.4818 213.027 53.3349 213.454C54.188 213.88 72.788 213.454 72.788 213.454C72.788 213.454 74.0726 210.076 72.044 207.809C70.0154 205.542 63.3194 206.544 63.3194 206.544Z" fill="white" stroke="#263238" stroke-width="1.00396" stroke-miterlimit="10"/>
<path d="M72.788 213.453C72.788 213.453 54.188 213.88 53.3349 213.453C52.9232 213.245 52.9083 212.645 53.0025 212.074H73.1154C73.0496 212.543 72.94 213.005 72.788 213.453Z" fill="white" stroke="#263238" stroke-width="1.00396" stroke-miterlimit="10"/>
<path d="M58.5974 131.048C58.5974 131.048 55.9885 142.61 55.0014 149.841C54.0144 157.073 53.4341 171.561 53.6424 173.223C53.8507 174.884 64.2369 202.725 64.2369 202.725L65.2736 205.205L72.5449 203.752C72.5449 203.752 69.2217 193.157 67.9768 187.339C66.7318 181.521 64.0088 171.963 64.0088 170.301C64.0088 168.64 70.4568 136.906 70.9181 134.822C71.3793 132.739 73.4725 129.54 73.4725 129.54L59.5497 129.257L58.5974 131.048Z" fill="white" stroke="#263238" stroke-width="1.00396" stroke-miterlimit="10"/>
<path d="M58.5974 131.048C58.5974 131.048 57.0697 141.608 57.6997 148.948C58.3296 156.289 59.6837 171.918 59.6837 174.244C59.6837 176.571 63.4384 190.464 63.6517 194.828C63.984 201.133 63.5177 204.252 63.5177 204.252L63.2945 206.539C63.2945 206.539 67.6742 207.164 68.6315 207.437C69.7372 207.722 70.8782 207.845 72.0192 207.804C72.0192 207.804 73.6114 200.795 73.6114 194.823C73.6114 188.852 72.287 176.561 71.6274 171.581C70.9677 166.601 73.0459 147.391 74.2264 143.805C75.4069 140.219 77.9861 132.625 76.2501 128.746C74.5141 124.868 58.5974 131.048 58.5974 131.048Z" fill="white" stroke="#263238" stroke-width="1.00396" stroke-miterlimit="10"/>
<path d="M78.1795 126.802L78.0208 131.524C78.0208 131.524 75.1936 132.085 71.3843 132.744C68.2397 133.29 60.3434 132.6 57.6848 132.343C57.4425 132.321 57.2185 132.205 57.0616 132.019C56.9046 131.833 56.8273 131.593 56.8466 131.351L57.1045 127.085L78.1795 126.802Z" fill="#263238"/>
<path d="M67.1286 79.7319C67.1286 79.7319 62.6646 84.558 60.9832 87.5588C59.3018 90.5596 58.6371 95.1575 58.0072 98.7783C57.3773 102.399 59.0835 110.901 58.6024 114.804L57.0797 127.1C57.0797 127.1 56.7523 127.933 57.8485 128.846C58.9446 129.758 64.2965 130.091 69.1325 130.334C70.8982 130.423 76.1707 129.287 77.0338 129.233C78.0754 129.168 78.1101 127.844 78.1547 126.802C78.363 121.907 79.2459 108.857 79.8262 103.173C81.0216 91.5814 74.4794 80.3916 67.1286 79.7319Z" fill="white" stroke="#263238" stroke-width="1.00396" stroke-miterlimit="10"/>
<g style="mix-blend-mode:multiply">
<path d="M79.2806 109.765C79.479 107.19 79.6774 104.854 79.851 103.173C79.9006 102.677 79.9304 102.181 79.9552 101.685L68.0958 103.669L57.908 100.197C57.9091 102.305 58.0283 104.411 58.2651 106.506L68.2595 109.303L79.2806 109.765Z" fill="white"/>
</g>
<g style="mix-blend-mode:multiply">
<path d="M66.6872 80.2178C66.0126 80.9667 64.6734 82.4895 63.3987 84.1064L70.928 91.7597L73.408 90.7677L66.6872 80.2178Z" fill="white"/>
</g>
<path d="M67.1286 79.7319C67.1286 79.7319 62.6646 84.558 60.9832 87.5588C60.4846 88.4708 60.0807 89.4314 59.7779 90.4257L68.7555 80.0543C68.2251 79.8937 67.6802 79.7857 67.1286 79.7319V79.7319Z" fill="#263238"/>
<g style="mix-blend-mode:multiply">
<path d="M58.3544 96.8238L68.0958 100.028L79.9254 98.6689C79.74 95.722 79.0853 92.8236 77.9861 90.0831L68.448 93.9073L59.9218 90.0435C59.2246 92.2596 58.7005 94.5265 58.3544 96.8238V96.8238Z" fill="white"/>
</g>
<g style="mix-blend-mode:multiply">
<path d="M75.1241 121.906C70.1833 122.736 65.1137 122.322 60.3731 120.701L57.9972 119.888L57.2582 125.84L59.9664 126.599C65.1147 128.038 70.4956 128.453 75.8037 127.819L77.991 127.556C78.1048 127.315 78.1689 127.053 78.1795 126.787C78.239 125.463 78.3432 123.538 78.4771 121.331L75.1241 121.906Z" fill="white"/>
</g>
<g style="mix-blend-mode:multiply">
<path d="M76.4485 113.802C71.5075 114.635 66.4366 114.219 61.6974 112.592L58.6718 111.555C58.7469 112.636 58.7319 113.721 58.6272 114.799L58.275 117.661L61.2907 118.504C66.437 119.945 71.8163 120.361 77.123 119.729L78.611 119.551C78.735 117.567 78.8789 115.454 79.0326 113.366L76.4485 113.802Z" fill="white"/>
</g>
<path d="M29.9144 92.8272L39.5047 100.538L39.9181 100.024L30.3277 92.3131L29.9144 92.8272Z" fill="#263238"/>
<path d="M71.7464 85.0835C71.7464 85.0835 75.263 87.4792 75.3424 93.1385C75.3771 95.6185 75.1192 97.9349 74.5488 101.997C73.9784 106.059 70.4369 119.288 67.6792 120.895C64.9214 122.502 60.6409 119.466 60.6409 119.466L39.9379 105.722L34.9332 101.68L32.4532 96.9974L33.232 95.5094L39.3377 100.192L36.0492 97.1512L36.694 96.3328L37.8844 97.1611L41.3564 98.4606L42.1153 103.421L43.1867 104.155L62.992 111.391C62.992 111.391 62.744 100.732 62.9275 98.6937C63.111 96.6552 63.364 91.5315 65.5464 87.8165" fill="white"/>
<g style="mix-blend-mode:multiply" opacity="0.5">
<path d="M62.8531 103.336C62.8531 107.016 62.9771 111.391 62.9771 111.391L43.1917 104.184L42.1203 103.45L41.3614 98.4902L37.8894 97.1907L36.704 96.3475L36.0592 97.1659L39.3377 100.192L33.232 95.5093L32.493 96.9725L34.9729 101.655L39.9776 105.722L41.2374 106.56L68.5918 115.374L62.8531 103.336Z" fill="white"/>
</g>
<path d="M71.7464 85.0835C71.7464 85.0835 75.263 87.4792 75.3424 93.1385C75.3771 95.6185 75.1192 97.9349 74.5488 101.997C73.9784 106.059 70.4369 119.288 67.6792 120.895C64.9214 122.502 60.6409 119.466 60.6409 119.466L39.9379 105.722L34.9332 101.68L32.4532 96.9974L33.232 95.5094L39.3377 100.192L36.0492 97.1512L36.694 96.3328L37.8844 97.1611L41.3564 98.4606L42.1153 103.421L43.1867 104.155L62.992 111.391C62.992 111.391 62.744 100.732 62.9275 98.6937C63.111 96.6552 63.364 91.5315 65.5464 87.8165" stroke="#263238" stroke-width="1.00396" stroke-miterlimit="10"/>
<path d="M62.992 111.391L70.551 116.847L72.5102 113.375C72.5102 113.375 73.8643 112.309 74.0627 111.506C74.2611 110.702 74.0082 109.398 74.2115 108.594C74.4149 107.79 75.4267 107.037 75.521 105.092C75.6152 103.148 75.521 101.526 75.521 101.526C75.521 101.526 77.1578 94.7953 76.9792 91.8689C76.8006 88.9425 73.9784 83.7692 71.7166 83.6551C69.4549 83.541 66.5136 83.8833 64.232 87.3354C61.9504 90.7876 62.4166 100.866 62.0595 101.496C61.7024 102.126 62.1984 105.236 62.1984 105.236C62.0002 105.384 61.8357 105.572 61.716 105.789C61.5962 106.005 61.524 106.244 61.504 106.491C61.4643 107.299 62.3373 109.288 62.3373 109.288L62.992 111.391Z" fill="white" stroke="#263238" stroke-width="1.00396" stroke-miterlimit="10"/>
<g style="mix-blend-mode:multiply">
<path d="M62.2579 98.9072C62.2735 99.7727 62.2087 100.638 62.0645 101.491C61.747 102.057 62.1091 104.611 62.1885 105.132C66.4401 106.453 70.9358 106.792 75.3374 106.124C75.432 105.779 75.4886 105.425 75.5061 105.068C75.6053 103.128 75.5061 101.501 75.5061 101.501C75.5061 101.501 75.6499 100.901 75.8483 99.9885C71.2898 100.278 66.7133 99.9141 62.2579 98.9072V98.9072Z" fill="white"/>
</g>
<g style="mix-blend-mode:multiply">
<path d="M63.9245 87.8862C63.2152 89.3098 62.8184 91.4475 62.5902 93.615C67.093 95.3335 71.9477 95.9243 76.7312 95.3362C76.9221 94.1891 77.0067 93.0268 76.9842 91.8642C76.8983 90.9451 76.6811 90.0432 76.3394 89.1857C72.1626 89.2832 67.9905 88.8465 63.9245 87.8862V87.8862Z" fill="white"/>
</g>
<path d="M62.3373 109.343L62.9771 111.392L70.5362 116.848L72.4954 113.376C72.4954 113.376 73.8494 112.309 74.0478 111.506C74.0832 111.366 74.1048 111.223 74.1123 111.079C70.1289 111.01 66.1711 110.427 62.3373 109.343V109.343Z" fill="#263238"/>
<path d="M67.8081 207.372C67.8081 207.372 67.9768 203.077 68.8001 196.797C69.6235 190.518 67.6445 181.6 67.3121 180.112C66.9798 178.624 67.4808 175.321 67.1485 174.16C66.8161 172.999 65.2091 168.049 66.1565 162.306C67.1038 156.562 67.8726 141.379 67.8726 141.379C67.8726 141.379 65.4869 139.44 64.7875 136.915C64.0882 134.391 64.6238 133.597 64.6238 133.597" stroke="#263238" stroke-width="1.00396" stroke-miterlimit="10"/>
<path d="M68.9143 133.831L67.9966 138.91" stroke="#263238" stroke-width="1.00396" stroke-miterlimit="10"/>
</svg>
